<svg width="221" height="61" viewBox="0 0 221 61" fill="none" xmlns="http://www.w3.org/2000/svg">
  <g clip-path="url(#clip0_132_378)">
    <path
      d="M29.8674 7.79814V10.9757H31.7934V7.64374H38.0673V5.55518H21.1475V7.79814H29.8674ZM0.359375 16.7294H2.35854V7.79002H11.7368V5.55518H0.359375V16.7294ZM31.8016 58.525V50.5933H29.8674V58.5331H19.579V60.7029H37.7422V58.525H31.8016ZM38.2542 36.9974V35.0713H31.8016V16.0386H29.8674V18.631H21.1475V20.679H29.8674V45.5304H31.7934V36.9974H38.2542ZM11.7368 20.679V18.631H2.35854V16.7294H0.359375V41.6865H2.35854V20.679H11.7368ZM53.3454 7.67624V19.7038H55.5153V5.55518H38.0754V7.64374L53.3454 7.67624ZM47.673 35.0713V37.0217H53.3617V58.525H47.1854V60.6948H55.499V24.7586H53.3292V35.0713H47.673ZM2.35854 58.525V46.7494H0.359375V60.6948H19.579V58.525H2.35854Z"
      fill="#D24A43" />
    <path fill-rule="evenodd" clip-rule="evenodd"
      d="M27.8769 22.7188V56.4365H4.0332V22.7188H27.8769ZM6.09738 54.3723H25.8046V24.7911H6.09738V54.3723ZM4.0332 9.57796V16.7376H27.8769V9.57796H4.0332ZM6.09738 14.6653H25.8046V11.6503H6.09738V14.6653ZM51.4606 39.1916V56.6966H33.7688V39.1916H51.4606ZM35.833 54.6324H49.3964V41.2558H35.8411L35.833 54.6324ZM33.7688 9.64297V32.9747H51.4606V9.64297H33.7688ZM35.833 30.9105H49.3964V11.7153H35.8411L35.833 30.9105Z"
      fill="black" />
    <path
      d="M73.9627 9.11457C73.9627 11.3088 74.7753 11.9589 76.807 11.9589H79.4482C81.3417 11.9589 82.2519 11.642 82.9508 10.6099V5.49819H86.6972V21.1746H82.9508V13.9906C81.7162 14.769 80.2721 15.1492 78.8143 15.0796H75.9374C71.9797 15.0796 70.1756 13.3161 70.1756 9.52091V5.49819H73.922L73.9627 9.11457ZM88.7532 21.1746L97.0669 5.49819H102.617L110.882 21.1746H106.478L104.446 17.1925H95.1652L93.1335 21.1421L88.7532 21.1746ZM102.934 14.2669L99.9518 8.44006H99.773L96.6768 14.2669H102.934ZM130.931 15.7541C130.931 19.9312 129.891 21.1746 125.242 21.1746H118.261C113.93 21.1746 112.573 19.8418 112.573 15.6403V11.195C112.573 6.61155 114.035 5.32753 118.643 5.32753H124.876C128.582 5.32753 130.906 6.39213 130.906 10.7887H127.136C127.136 9.16333 126.323 8.44006 124.137 8.44006H119.326C116.823 8.44006 116.303 8.87077 116.303 11.3332V15.2177C116.303 17.6151 117.18 18.0621 119.326 18.0621H124.137C126.372 18.0621 127.136 17.6557 127.136 15.7622L130.931 15.7541ZM150.402 5.49819V8.61885H143.787V21.1746H140.041V8.61885H133.491V5.49819H150.402ZM156.392 11.5038H166.079V5.49819H169.825V21.1746H166.079V14.6245H156.392V21.1746H152.645V5.49819H156.392V11.5038ZM176.863 5.49819V11.3494H183.706C187.411 11.3494 189.394 12.2759 189.394 16.2742C189.394 20.2725 187.541 21.1502 183.819 21.1502H173.116V5.49819H176.863ZM176.863 18.0539H183.364C185.372 18.0539 185.648 17.5988 185.648 16.2254C185.648 15.0308 185.445 14.4619 183.502 14.4619H176.879L176.863 18.0539ZM196.83 21.1746H193.076V5.49819H196.83V21.1746ZM204.339 18.0539H204.859L214.441 5.49819H220.739V21.1746H216.993V8.61885H216.472L207.062 21.1746H200.625V5.49819H204.339V18.0539ZM210.028 4.35233C205.509 4.35233 204.656 3.45027 204.656 1.14228V0.939117H207.704C207.704 2.38567 208.045 2.52382 210.028 2.52382C212.011 2.52382 212.377 2.38567 212.377 0.939117H215.424C215.457 3.13333 214.985 4.35233 210.028 4.35233ZM76.5794 26.7658L81.4067 38.4438H81.6261L86.4534 26.7658H92.9547V41.3451H89.4684V29.667H89.0052L84.0072 41.3451H79.05L74.0358 29.667H73.5726V41.3451H70.0862V26.7658H76.5794ZM96.2135 26.7658H111.102V29.5207H99.7243V32.7145H110.768V35.2582H99.6999V38.5982H111.077V41.3451H96.2135V26.7658ZM127.948 26.7658V29.5207H117.782V32.2025H124.145C127.591 32.2025 129.419 33.0639 129.419 36.7779C129.419 40.4917 127.696 41.3369 124.234 41.3369H114.295V26.7658H127.948ZM117.782 38.4438H123.812C125.681 38.4438 125.933 38.0212 125.933 36.7372C125.933 35.6239 125.746 35.1119 123.934 35.1119H117.782V38.4438ZM132.711 26.7658H147.599V29.5207H136.221V32.7145H147.265V35.2582H136.197V38.5982H147.574V41.3451H132.711V26.7658ZM167.095 26.7658V41.3451H163.608V29.667H155.417V36.0464C155.417 39.7847 153.889 41.3369 151.28 41.3369H149.809V38.4438C151.597 38.4438 151.93 37.7693 151.93 35.6482V26.7658H167.095ZM173.458 26.7658V32.2025H179.821C183.267 32.2025 185.095 33.0639 185.095 36.7779C185.095 40.4917 183.372 41.3369 179.91 41.3369H169.947V26.7658H173.458ZM173.458 38.4438H179.48C181.349 38.4438 181.601 38.0212 181.601 36.7372C181.601 35.6239 181.414 35.1119 179.602 35.1119H173.458V38.4438ZM187.964 26.7658H202.852V29.5207H191.475V32.7145H202.519V35.2582H191.45V38.5982H202.828V41.3451H187.964V26.7658ZM209.345 41.3451H205.859V26.7658H215.79C219.463 26.7658 220.91 28.1961 220.91 31.8693C220.91 35.5426 219.422 37.0379 215.83 37.0379H209.329L209.345 41.3451ZM209.345 34.1367H215.164C216.928 34.1367 217.431 33.4459 217.431 31.8693C217.431 30.4472 216.993 29.667 215.164 29.667H209.345V34.1367ZM76.6038 54.5266C75.9514 53.9132 75.1077 53.5431 74.2146 53.4782C72.2642 53.4782 71.1183 54.7541 71.1183 56.7939C71.1183 58.8337 72.3211 60.004 74.1496 60.004C74.6687 60.0064 75.1823 59.8966 75.655 59.682C76.1277 59.4673 76.5484 59.153 76.8883 58.7606L77.2946 59.4432C76.9243 59.9255 76.4402 60.3085 75.8858 60.5581C75.3313 60.8077 74.7236 60.9161 74.1171 60.8735C71.5571 60.8735 70.0537 59.3132 70.0537 56.8102C70.0537 54.3071 71.614 52.633 74.1171 52.633C74.6561 52.6043 75.1943 52.7026 75.6883 52.9199C76.1824 53.1373 76.6185 53.4677 76.9614 53.8845L76.6038 54.5266ZM82.3413 52.7712L85.4213 60.6947H84.3729L83.5603 58.6468H79.7326L78.9199 60.6947H77.896L80.976 52.7712H82.3413ZM80.0008 57.9641H83.3165L81.6911 53.6001L80.0008 57.9641ZM93.0441 52.7712V60.6947H92.0202V53.592H89.1433C89.1433 58.468 88.3307 60.8329 86.7053 60.8329C86.4775 60.8461 86.2503 60.7984 86.0471 60.6947L86.0958 59.882C86.2176 59.9288 86.3474 59.9509 86.4778 59.9471C87.7049 59.9471 88.1437 57.826 88.1437 52.8037L93.0441 52.7712ZM99.1067 60.8735C96.5955 60.8735 95.1246 59.2482 95.1246 56.7533C95.1246 54.2584 96.5955 52.6249 99.1067 52.6249C101.618 52.6249 103.105 54.2502 103.105 56.7533C103.105 59.2563 101.618 60.8735 99.1067 60.8735ZM99.1067 53.4863C97.27 53.4863 96.1729 54.7622 96.1729 56.737C96.1729 58.7118 97.2619 59.9877 99.1067 59.9877C100.951 59.9877 102.057 58.7443 102.057 56.737C102.057 54.7297 100.943 53.4863 99.1067 53.4863ZM111.549 60.6947H110.525V57.1596H106.185V60.6947H105.194V52.7712H106.218V56.3713H110.557V52.7712H111.581L111.549 60.6947ZM126.932 60.6947H125.949V54.1934L122.804 60.6947H121.805L118.651 54.1934V60.6947H117.668V52.7712H119.009L122.26 59.6545L125.559 52.7793H126.9L126.932 60.6947ZM134.97 60.6947H129.671V52.7712H134.653V53.5839H130.695V56.2901H134.328V57.1027H130.695V59.8983H134.97V60.6947ZM141.577 53.592H137.944V55.9569H139.228C141.333 55.9569 142.479 56.6964 142.479 58.2486C142.479 59.8008 141.528 60.6866 139.301 60.6866H136.888V52.7712H141.544L141.577 53.592ZM137.944 56.6964V59.9471H139.253C140.813 59.9471 141.504 59.4026 141.504 58.3217C141.504 57.2409 140.732 56.7451 139.228 56.7451L137.944 56.6964ZM149.842 60.6947H144.543V52.7712H149.525V53.5839H145.567V56.2901H149.2V57.1027H145.567V59.8983H149.842V60.6947ZM157.716 52.7712V60.6947H156.692V53.592H153.816C153.816 58.468 153.003 60.8329 151.378 60.8329C151.15 60.8461 150.923 60.7984 150.719 60.6947L150.768 59.882C150.89 59.9288 151.02 59.9509 151.15 59.9471C152.377 59.9471 152.816 57.826 152.816 52.8037L157.716 52.7712ZM166.956 52.8037V60.7272H165.981V54.7053L166.03 54.2909L161.471 60.5809L161.422 60.7028H160.455V52.7712H161.43V58.8175L161.365 59.1832L165.924 52.8931L165.973 52.7712H166.956V52.8037Z"
      fill="#2E2223" />
  </g>
  <defs>
    <clipPath id="clip0_132_378">
      <rect width="220.559" height="59.9344" fill="white" transform="translate(0.359375 0.939133)" />
    </clipPath>
  </defs>
</svg>